<svg width="13" height="13" fill="none" xmlns="http://www.w3.org/2000/svg"><path d="M5.39 9.909L3.856 11.44A1.624 1.624 0 111.56 9.143l3.064-3.064a1.624 1.624 0 012.298 0 .542.542 0 00.766-.766 2.708 2.708 0 00-3.83 0L.793 8.377a2.708 2.708 0 103.83 3.83l1.532-1.532a.542.542 0 00-.766-.766z" fill="#000"/><path d="M12.206.793a2.709 2.709 0 00-3.83 0L6.538 2.631a.542.542 0 00.766.766L9.142 1.56a1.625 1.625 0 012.298 2.298l-3.37 3.37a1.625 1.625 0 01-2.298 0 .542.542 0 00-.766.766 2.708 2.708 0 003.83 0l3.37-3.37a2.708 2.708 0 000-3.83z" fill="#000"/></svg>