<svg width="16" height="15" fill="none" xmlns="http://www.w3.org/2000/svg"><path d="M14.368 4.489c0-.154-.005-.303-.012-.45A6.788 6.788 0 0016 2.228a6.539 6.539 0 01-1.89.55c.68-.431 1.2-1.11 1.443-1.926a6.334 6.334 0 01-2.08.844A3.199 3.199 0 0011.077.594C9.261.594 7.8 2.16 7.8 4.079c0 .277.022.542.076.795-2.726-.141-5.14-1.53-6.761-3.646a3.684 3.684 0 00-.45 1.762c0 1.207.585 2.277 1.458 2.896A3.097 3.097 0 01.64 5.457v.038c0 1.694 1.137 3.1 2.628 3.425-.501.146-1.119.14-1.48.055.424 1.38 1.63 2.395 3.064 2.429A6.351 6.351 0 010 12.842a8.847 8.847 0 005.032 1.564c6.036 0 9.336-5.312 9.336-9.917z" fill="#A2A2A2"/></svg>