<svg width="219" height="64" fill="none" xmlns="http://www.w3.org/2000/svg"><path d="M.111 13.477c0-6.315 5.305-11.334 11.61-10.983l96.304 5.35a11 11 0 0110.389 10.983v25.195a11 11 0 01-10.389 10.983l-96.303 5.35c-6.306.35-11.61-4.668-11.61-10.983V13.477z" fill="#FF1D25"/><path d="M21.432 19.963c-7.67-6.661-2.34-18.691 7.797-18.016l79.502 5.297A11 11 0 01119 18.22v25.274c0 6.27-5.21 11.217-11.439 10.508-16.778-1.911-48.422-7.255-70.172-21.52-4.719-3.094-10.432-7.72-15.957-12.519z" fill="#B20016"/><path d="M25.353 45.786c-1.5.003-2.993-.199-4.439-.599a17.471 17.471 0 01-3.905-1.639 12.688 12.688 0 01-3.11-2.601l4.256-4.306a8.928 8.928 0 003.15 2.264c1.267.521 2.626.782 3.996.767a5.523 5.523 0 002.603-.494 1.575 1.575 0 00.937-1.47 1.91 1.91 0 00-.989-1.704 8.407 8.407 0 00-2.46-.976l-3.176-.936a20.002 20.002 0 01-3.163-1.301 7.378 7.378 0 01-2.525-2.342 7.58 7.58 0 01-.924-3.902 7.97 7.97 0 011.197-4.37 8.368 8.368 0 013.515-3.005 13.14 13.14 0 015.414-1.041 14.602 14.602 0 015.91 1.145 10.868 10.868 0 014.425 3.447l-4.321 4.318a6.95 6.95 0 00-2.733-2.133 7.813 7.813 0 00-3.229-.663 5.118 5.118 0 00-2.46.494 1.522 1.522 0 00-.82 1.366 1.69 1.69 0 00.938 1.535c.796.42 1.64.748 2.512.975 1.015.26 2.082.573 3.176.937a12.13 12.13 0 013.163 1.418 7.17 7.17 0 012.46 2.51 7.06 7.06 0 01.989 3.903 7.619 7.619 0 01-2.785 6.178 11.812 11.812 0 01-7.602 2.225zm25.655 0a15.315 15.315 0 01-7.38-1.743 14.015 14.015 0 01-5.142-4.97 13.639 13.639 0 01-1.86-7.102 13.288 13.288 0 016.833-11.915 13.74 13.74 0 017.055-1.86c2.362-.05 4.692.558 6.73 1.756a11.815 11.815 0 014.594 4.696 13.326 13.326 0 011.692 6.712 9.74 9.74 0 01-.117 1.483 8.91 8.91 0 01-.273 1.639H41.011v-5.307h18.86l-2.89 2.237a9.998 9.998 0 00-.884-3.902 5.126 5.126 0 00-2.122-2.407 6.159 6.159 0 00-3.397-.871 6.812 6.812 0 00-3.71.988 6.116 6.116 0 00-2.525 2.589 9.23 9.23 0 00-.82 4.045 9.568 9.568 0 00.82 4.228 6.87 6.87 0 002.603 2.731 8.178 8.178 0 003.905.924 9.95 9.95 0 003.658-.65 8.146 8.146 0 002.85-2.082l4.205 4.202a12.17 12.17 0 01-4.7 3.395 15.211 15.211 0 01-5.857 1.132v.052zm32.541-.547V30.06a5.057 5.057 0 00-3.273-4.992 5.067 5.067 0 00-2.09-.315 5.52 5.52 0 00-2.733.663 4.84 4.84 0 00-1.913 1.848 5.694 5.694 0 00-.56 2.796l-2.786-1.43a10.7 10.7 0 011.302-5.399 9.656 9.656 0 013.71-3.668 11.188 11.188 0 015.415-1.301 9.325 9.325 0 015.206 1.483 10.137 10.137 0 013.606 3.772 9.724 9.724 0 011.301 4.97v16.701l-7.185.052zm-17.78-.052V18.794h7.21v26.393h-7.21zm41.145.547a15.314 15.314 0 01-7.38-1.743 13.924 13.924 0 01-5.207-4.917 13.637 13.637 0 01-1.822-7.103 13.287 13.287 0 016.833-11.915 13.712 13.712 0 017.055-1.86 12.673 12.673 0 016.717 1.756 11.713 11.713 0 014.594 4.696 13.181 13.181 0 011.692 6.712c.004.496-.031.992-.104 1.483a11.8 11.8 0 01-.273 1.639H96.891v-5.307h18.861l-2.942 2.185a10.009 10.009 0 00-.872-3.902 5.076 5.076 0 00-2.135-2.407 6.147 6.147 0 00-3.384-.871 6.864 6.864 0 00-3.723.988 6.277 6.277 0 00-2.46 2.667 9.234 9.234 0 00-.82 4.045 9.755 9.755 0 00.898 4.202 6.9 6.9 0 002.604 2.731 8.163 8.163 0 003.905.924 9.975 9.975 0 003.67-.65 7.995 7.995 0 002.838-2.095l4.217 4.202a12.222 12.222 0 01-4.712 3.395 15.142 15.142 0 01-5.922 1.145z" fill="#fff"/><path d="M130.445 45.188l-9.906-26.394h7.224l6.508 19.187-2.304.052 6.626-19.239h5.206l6.652 19.24h-2.187l6.508-19.187h7.133l-9.814 26.34h-5.207l-6.664-18.21h2.03l-6.677 18.21h-5.128zm44.815.546a15.317 15.317 0 01-7.38-1.743 14.011 14.011 0 01-5.207-4.917 13.634 13.634 0 01-1.861-7.102 13.29 13.29 0 016.833-11.916 13.74 13.74 0 017.055-1.86 12.75 12.75 0 016.73 1.756 11.791 11.791 0 014.582 4.696 13.208 13.208 0 011.705 6.712 9.817 9.817 0 01-.117 1.483 11.96 11.96 0 01-.274 1.639h-22.193v-5.307h18.861l-2.903 2.237a9.991 9.991 0 00-.872-3.902 5.07 5.07 0 00-2.134-2.407 6.125 6.125 0 00-3.385-.871 6.888 6.888 0 00-3.722.988 6.27 6.27 0 00-2.46 2.667 9.213 9.213 0 00-.82 4.046 9.548 9.548 0 00.885 4.214 6.775 6.775 0 002.603 2.732 8.18 8.18 0 003.905.923 9.944 9.944 0 003.657-.65 7.99 7.99 0 002.838-2.081l4.217 4.201a12.265 12.265 0 01-4.699 3.395 15.213 15.213 0 01-5.844 1.067zm29.404 0a10.963 10.963 0 01-5.128-1.197 9.732 9.732 0 01-3.671-3.252 8.944 8.944 0 01-1.419-4.67v-9.404a8.664 8.664 0 011.471-4.592 9.585 9.585 0 013.736-3.213 11.159 11.159 0 015.076-1.158 12.186 12.186 0 016.508 1.808 12.454 12.454 0 014.543 4.917 14.478 14.478 0 011.692 7.05 14.294 14.294 0 01-1.692 6.986 12.448 12.448 0 01-4.556 4.878 12.07 12.07 0 01-6.56 1.847zm-1.197-6.608a6.758 6.758 0 003.449-.872 6.26 6.26 0 002.343-2.523 7.798 7.798 0 00.872-3.76 7.417 7.417 0 00-.872-3.668 5.844 5.844 0 00-2.343-2.51 7.098 7.098 0 00-7.003 0 6.286 6.286 0 00-2.356 2.484 7.8 7.8 0 00-.82 3.668 8.285 8.285 0 00.82 3.76 6.707 6.707 0 002.408 2.523 7.06 7.06 0 003.502.898zm-13.446 6.062V5.682h7.159v19.616l-1.198 6.334 1.146 6.504v7.05h-7.107zM129.004 60.14c-.663 0-1.26-.15-1.792-.448a3.433 3.433 0 01-1.26-1.246c-.308-.523-.462-1.115-.462-1.778 0-.653.149-1.241.448-1.764a3.392 3.392 0 011.232-1.232 3.383 3.383 0 011.75-.462c.616 0 1.157.14 1.624.42.476.28.845.667 1.106 1.162.271.495.406 1.055.406 1.68 0 .093-.005.196-.014.308a3.43 3.43 0 01-.056.364h-5.614v-1.05h4.942l-.462.406c0-.448-.079-.826-.238-1.134a1.7 1.7 0 00-.672-.728c-.289-.177-.639-.266-1.05-.266-.429 0-.807.093-1.134.28a1.908 1.908 0 00-.756.784c-.177.336-.266.733-.266 1.19 0 .467.093.877.28 1.232.187.345.453.616.798.812.345.187.742.28 1.19.28.373 0 .714-.065 1.022-.196a2.12 2.12 0 00.812-.588l.812.826a3.083 3.083 0 01-1.176.854 3.69 3.69 0 01-1.47.294zm7.184 0a3.485 3.485 0 01-1.778-.462 3.463 3.463 0 01-1.246-1.246 3.538 3.538 0 01-.448-1.764c0-.653.149-1.241.448-1.764a3.355 3.355 0 011.246-1.232 3.485 3.485 0 011.778-.462c.513 0 .989.098 1.428.294a3.09 3.09 0 011.134.826l-.84.84a1.918 1.918 0 00-.756-.546 2.318 2.318 0 00-.966-.196c-.42 0-.793.098-1.12.294a2.007 2.007 0 00-.77.784 2.35 2.35 0 00-.28 1.162c0 .439.093.826.28 1.162.187.336.443.602.77.798.327.196.7.294 1.12.294.355 0 .677-.06.966-.182.299-.13.555-.317.77-.56l.826.84a3.15 3.15 0 01-1.134.826 3.462 3.462 0 01-1.428.294zm6.433 0a3.405 3.405 0 01-1.764-.462 3.463 3.463 0 01-1.246-1.246 3.484 3.484 0 01-.462-1.778c0-.644.154-1.223.462-1.736a3.463 3.463 0 011.246-1.246 3.405 3.405 0 011.764-.462c.644 0 1.227.154 1.75.462.532.299.952.71 1.26 1.232.308.523.462 1.106.462 1.75 0 .653-.154 1.246-.462 1.778a3.433 3.433 0 01-1.26 1.246 3.383 3.383 0 01-1.75.462zm0-1.218c.42 0 .793-.098 1.12-.294.326-.196.583-.462.77-.798a2.44 2.44 0 00.28-1.176c0-.43-.098-.812-.294-1.148a2.013 2.013 0 00-.77-.784 2.063 2.063 0 00-1.106-.294c-.42 0-.794.098-1.12.294a2 2 0 00-.77.784 2.32 2.32 0 00-.28 1.148c0 .439.093.83.28 1.176a2.1 2.1 0 00.77.798c.326.196.7.294 1.12.294zM151.936 60v-3.878c0-.504-.158-.92-.476-1.246-.317-.327-.728-.49-1.232-.49-.336 0-.634.075-.896.224a1.64 1.64 0 00-.616.616c-.149.261-.224.56-.224.896l-.518-.294c0-.504.112-.952.336-1.344.224-.392.537-.7.938-.924.402-.233.854-.35 1.358-.35.504 0 .948.126 1.33.378.392.252.7.583.924.994.224.401.336.83.336 1.288V60h-1.26zm-4.704 0v-6.65h1.26V60h-1.26zm10.428.14a3.41 3.41 0 01-1.764-.462 3.471 3.471 0 01-1.246-1.246 3.484 3.484 0 01-.462-1.778c0-.644.154-1.223.462-1.736a3.471 3.471 0 011.246-1.246 3.41 3.41 0 011.764-.462 3.38 3.38 0 011.75.462c.532.299.952.71 1.26 1.232.308.523.462 1.106.462 1.75 0 .653-.154 1.246-.462 1.778a3.433 3.433 0 01-1.26 1.246 3.38 3.38 0 01-1.75.462zm0-1.218c.42 0 .794-.098 1.12-.294a2.1 2.1 0 00.77-.798 2.43 2.43 0 00.28-1.176c0-.43-.098-.812-.294-1.148a2 2 0 00-.77-.784 2.06 2.06 0 00-1.106-.294c-.42 0-.793.098-1.12.294a2.013 2.013 0 00-.77.784c-.186.336-.28.719-.28 1.148 0 .439.094.83.28 1.176.187.336.444.602.77.798.327.196.7.294 1.12.294zM162.272 60v-6.65h1.26V60h-1.26zm4.494 0v-4.018c0-.495-.154-.882-.462-1.162-.299-.29-.677-.434-1.134-.434-.308 0-.583.065-.826.196-.243.13-.439.313-.588.546a1.528 1.528 0 00-.224.84l-.518-.252c0-.504.107-.943.322-1.316.224-.373.527-.663.91-.868a2.587 2.587 0 011.288-.322c.467 0 .887.103 1.26.308.383.205.681.495.896.868.224.373.336.817.336 1.33V60h-1.26zm4.494 0v-4.018c0-.495-.154-.882-.462-1.162-.299-.29-.672-.434-1.12-.434-.308 0-.588.065-.84.196-.243.13-.439.313-.588.546a1.528 1.528 0 00-.224.84l-.714-.252c.028-.513.163-.952.406-1.316.252-.373.574-.663.966-.868a2.636 2.636 0 011.288-.322c.485 0 .919.103 1.302.308.383.205.686.495.91.868.233.373.35.821.35 1.344V60h-1.274zm2.723 0v-6.65h1.26V60h-1.26zm.63-7.98a.776.776 0 01-.574-.224.823.823 0 01-.224-.588c0-.224.074-.41.224-.56a.752.752 0 01.574-.238c.233 0 .424.08.574.238.149.15.224.336.224.56 0 .233-.075.43-.224.588a.779.779 0 01-.574.224zm5.244 8.12a3.485 3.485 0 01-1.778-.462 3.471 3.471 0 01-1.246-1.246 3.548 3.548 0 01-.448-1.764 3.5 3.5 0 01.448-1.764 3.362 3.362 0 011.246-1.232 3.485 3.485 0 011.778-.462c.514 0 .99.098 1.428.294a3.09 3.09 0 011.134.826l-.84.84a1.918 1.918 0 00-.756-.546 2.318 2.318 0 00-.966-.196c-.42 0-.793.098-1.12.294a2.013 2.013 0 00-.77.784 2.36 2.36 0 00-.28 1.162c0 .439.094.826.28 1.162.187.336.444.602.77.798.327.196.7.294 1.12.294.355 0 .677-.06.966-.182.299-.13.556-.317.77-.56l.826.84a3.15 3.15 0 01-1.134.826 3.456 3.456 0 01-1.428.294zm10.868-.14v-3.878c0-.504-.158-.92-.476-1.246-.317-.327-.728-.49-1.232-.49-.336 0-.634.075-.896.224a1.64 1.64 0 00-.616.616c-.149.261-.224.56-.224.896l-.518-.294c0-.504.112-.952.336-1.344.224-.392.537-.7.938-.924.402-.233.854-.35 1.358-.35.504 0 .948.126 1.33.378.392.252.7.583.924.994.224.401.336.83.336 1.288V60h-1.26zm-4.704 0v-6.65h1.26V60h-1.26zm10.47.14c-.663 0-1.26-.15-1.792-.448a3.433 3.433 0 01-1.26-1.246c-.308-.523-.462-1.115-.462-1.778 0-.653.149-1.241.448-1.764a3.392 3.392 0 011.232-1.232 3.383 3.383 0 011.75-.462c.616 0 1.157.14 1.624.42.476.28.845.667 1.106 1.162.271.495.406 1.055.406 1.68 0 .093-.005.196-.014.308a3.43 3.43 0 01-.056.364h-5.614v-1.05h4.942l-.462.406c0-.448-.079-.826-.238-1.134a1.7 1.7 0 00-.672-.728c-.289-.177-.639-.266-1.05-.266-.429 0-.807.093-1.134.28a1.908 1.908 0 00-.756.784c-.177.336-.266.733-.266 1.19 0 .467.093.877.28 1.232.187.345.453.616.798.812.345.187.742.28 1.19.28.373 0 .714-.065 1.022-.196a2.12 2.12 0 00.812-.588l.812.826a3.083 3.083 0 01-1.176.854 3.69 3.69 0 01-1.47.294zm5.968-.14l-2.632-6.65h1.316l1.904 5.18h-.42l1.89-5.18h.728l1.89 5.18h-.42l1.904-5.18h1.316L207.317 60h-.742l-1.918-5.026h.462L203.187 60h-.728zm10.266.14c-.373 0-.728-.047-1.064-.14a3.846 3.846 0 01-.91-.42 3.27 3.27 0 01-.728-.658l.812-.812c.243.299.523.523.84.672.317.14.672.21 1.064.21s.695-.065.91-.196a.652.652 0 00.322-.574c0-.243-.089-.43-.266-.56a1.891 1.891 0 00-.658-.336 14.12 14.12 0 00-.868-.266 5.285 5.285 0 01-.854-.35 1.897 1.897 0 01-.672-.574c-.168-.243-.252-.565-.252-.966s.098-.747.294-1.036c.196-.299.467-.527.812-.686.355-.159.779-.238 1.274-.238.523 0 .985.093 1.386.28.411.177.747.448 1.008.812l-.812.812a1.868 1.868 0 00-.7-.56 2.1 2.1 0 00-.924-.196c-.364 0-.644.065-.84.196a.582.582 0 00-.28.518.6.6 0 00.252.518c.168.121.387.224.658.308.28.084.569.173.868.266.299.084.583.2.854.35.271.15.49.35.658.602.177.252.266.583.266.994 0 .625-.224 1.12-.672 1.484-.439.364-1.031.546-1.778.546z" fill="#000"/></svg>