<svg width="23" height="23" fill="none" xmlns="http://www.w3.org/2000/svg"><g clip-path="url(#clip0_3312_6326)"><path d="M.5 17.13c.469 1.665 1.906 1.97 2.001 2.028 2.365.644 15.616.646 18.016 0 1.644-.475 1.945-1.933 2.002-2.029.626-3.329.667-7.67-.029-11.447l.03.188c-.47-1.666-1.907-1.97-2.003-2.029-2.332-.633-15.619-.657-18.016 0C.858 4.317.556 5.774.5 5.87c-.67 3.499-.703 7.513 0 11.26zm8.707-2.131v-6.99l6.005 3.5L9.207 15z" fill="#E53935"/></g><defs><clipPath id="clip0_3312_6326"><path fill="#fff" d="M0 0h23v23H0z"/></clipPath></defs></svg>