<svg width="17" height="19" fill="none" xmlns="http://www.w3.org/2000/svg"><path d="M14.061 9.63a.719.719 0 10-1.01 1.022 6.423 6.423 0 011.918 4.598c0 .879-2.52 2.156-6.469 2.156-3.949 0-6.469-1.278-6.469-2.157a6.425 6.425 0 011.894-4.574.718.718 0 10-1.016-1.016 7.854 7.854 0 00-2.315 5.59c0 2.335 4.073 3.595 7.906 3.595 3.833 0 7.906-1.26 7.906-3.594a7.848 7.848 0 00-2.345-5.62z" fill="#000"/><path d="M8.5 10.219a5.031 5.031 0 10-5.031-5.031 5.037 5.037 0 005.031 5.03zm0-8.625a3.594 3.594 0 110 7.187 3.594 3.594 0 010-7.187z" fill="#000"/></svg>